<?xml version="1.0" standalone="no"?>
<svg xmlns="http://www.w3.org/2000/svg" width="2000" height="2000" viewBox="0 0 2000 2000"><defs><clipPath id="clip-path-dot-color"><rect x="100" y="676" width="72" height="72" transform="rotate(0,136,712)"/><rect x="100" y="748" width="72" height="72" transform="rotate(0,136,784)"/><rect x="100" y="820" width="72" height="72" transform="rotate(0,136,856)"/><rect x="100" y="892" width="72" height="72" transform="rotate(0,136,928)"/><rect x="100" y="1036" width="72" height="72" transform="rotate(0,136,1072)"/><rect x="100" y="1108" width="72" height="72" transform="rotate(0,136,1144)"/><rect x="100" y="1180" width="72" height="72" transform="rotate(0,136,1216)"/><rect x="172" y="892" width="72" height="72" transform="rotate(0,208,928)"/><rect x="172" y="964" width="72" height="72" transform="rotate(0,208,1000)"/><rect x="172" y="1036" width="72" height="72" transform="rotate(0,208,1072)"/><rect x="244" y="748" width="72" height="72" transform="rotate(0,280,784)"/><rect x="244" y="892" width="72" height="72" transform="rotate(0,280,928)"/><rect x="244" y="1036" width="72" height="72" transform="rotate(0,280,1072)"/><rect x="244" y="1108" width="72" height="72" transform="rotate(0,280,1144)"/><rect x="244" y="1180" width="72" height="72" transform="rotate(0,280,1216)"/><rect x="316" y="820" width="72" height="72" transform="rotate(0,352,856)"/><rect x="316" y="892" width="72" height="72" transform="rotate(0,352,928)"/><rect x="316" y="1036" width="72" height="72" transform="rotate(0,352,1072)"/><rect x="316" y="1180" width="72" height="72" transform="rotate(0,352,1216)"/><rect x="316" y="1252" width="72" height="72" transform="rotate(0,352,1288)"/><rect x="388" y="820" width="72" height="72" transform="rotate(0,424,856)"/><rect x="388" y="892" width="72" height="72" transform="rotate(0,424,928)"/><rect x="388" y="964" width="72" height="72" transform="rotate(0,424,1000)"/><rect x="388" y="1108" width="72" height="72" transform="rotate(0,424,1144)"/><rect x="388" y="1252" width="72" height="72" transform="rotate(0,424,1288)"/><rect x="460" y="748" width="72" height="72" transform="rotate(0,496,784)"/><rect x="460" y="892" width="72" height="72" transform="rotate(0,496,928)"/><rect x="460" y="1036" width="72" height="72" transform="rotate(0,496,1072)"/><rect x="460" y="1108" width="72" height="72" transform="rotate(0,496,1144)"/><rect x="532" y="676" width="72" height="72" transform="rotate(0,568,712)"/><rect x="532" y="820" width="72" height="72" transform="rotate(0,568,856)"/><rect x="532" y="964" width="72" height="72" transform="rotate(0,568,1000)"/><rect x="532" y="1108" width="72" height="72" transform="rotate(0,568,1144)"/><rect x="532" y="1252" width="72" height="72" transform="rotate(0,568,1288)"/><rect x="604" y="676" width="72" height="72" transform="rotate(0,640,712)"/><rect x="604" y="748" width="72" height="72" transform="rotate(0,640,784)"/><rect x="604" y="964" width="72" height="72" transform="rotate(0,640,1000)"/><rect x="604" y="1036" width="72" height="72" transform="rotate(0,640,1072)"/><rect x="604" y="1108" width="72" height="72" transform="rotate(0,640,1144)"/><rect x="604" y="1180" width="72" height="72" transform="rotate(0,640,1216)"/><rect x="604" y="1252" width="72" height="72" transform="rotate(0,640,1288)"/><rect x="676" y="100" width="72" height="72" transform="rotate(0,712,136)"/><rect x="676" y="172" width="72" height="72" transform="rotate(0,712,208)"/><rect x="676" y="316" width="72" height="72" transform="rotate(0,712,352)"/><rect x="676" y="388" width="72" height="72" transform="rotate(0,712,424)"/><rect x="676" y="532" width="72" height="72" transform="rotate(0,712,568)"/><rect x="676" y="748" width="72" height="72" transform="rotate(0,712,784)"/><rect x="676" y="964" width="72" height="72" transform="rotate(0,712,1000)"/><rect x="676" y="1108" width="72" height="72" transform="rotate(0,712,1144)"/><rect x="676" y="1252" width="72" height="72" transform="rotate(0,712,1288)"/><rect x="676" y="1396" width="72" height="72" transform="rotate(0,712,1432)"/><rect x="676" y="1828" width="72" height="72" transform="rotate(0,712,1864)"/><rect x="748" y="100" width="72" height="72" transform="rotate(0,784,136)"/><rect x="748" y="316" width="72" height="72" transform="rotate(0,784,352)"/><rect x="748" y="460" width="72" height="72" transform="rotate(0,784,496)"/><rect x="748" y="820" width="72" height="72" transform="rotate(0,784,856)"/><rect x="748" y="1180" width="72" height="72" transform="rotate(0,784,1216)"/><rect x="748" y="1252" width="72" height="72" transform="rotate(0,784,1288)"/><rect x="748" y="1324" width="72" height="72" transform="rotate(0,784,1360)"/><rect x="748" y="1468" width="72" height="72" transform="rotate(0,784,1504)"/><rect x="748" y="1540" width="72" height="72" transform="rotate(0,784,1576)"/><rect x="748" y="1612" width="72" height="72" transform="rotate(0,784,1648)"/><rect x="748" y="1684" width="72" height="72" transform="rotate(0,784,1720)"/><rect x="748" y="1756" width="72" height="72" transform="rotate(0,784,1792)"/><rect x="820" y="100" width="72" height="72" transform="rotate(0,856,136)"/><rect x="820" y="172" width="72" height="72" transform="rotate(0,856,208)"/><rect x="820" y="244" width="72" height="72" transform="rotate(0,856,280)"/><rect x="820" y="388" width="72" height="72" transform="rotate(0,856,424)"/><rect x="820" y="460" width="72" height="72" transform="rotate(0,856,496)"/><rect x="820" y="532" width="72" height="72" transform="rotate(0,856,568)"/><rect x="820" y="604" width="72" height="72" transform="rotate(0,856,640)"/><rect x="820" y="748" width="72" height="72" transform="rotate(0,856,784)"/><rect x="820" y="1180" width="72" height="72" transform="rotate(0,856,1216)"/><rect x="820" y="1252" width="72" height="72" transform="rotate(0,856,1288)"/><rect x="820" y="1324" width="72" height="72" transform="rotate(0,856,1360)"/><rect x="820" y="1396" width="72" height="72" transform="rotate(0,856,1432)"/><rect x="820" y="1468" width="72" height="72" transform="rotate(0,856,1504)"/><rect x="820" y="1540" width="72" height="72" transform="rotate(0,856,1576)"/><rect x="820" y="1612" width="72" height="72" transform="rotate(0,856,1648)"/><rect x="820" y="1828" width="72" height="72" transform="rotate(0,856,1864)"/><rect x="892" y="100" width="72" height="72" transform="rotate(0,928,136)"/><rect x="892" y="388" width="72" height="72" transform="rotate(0,928,424)"/><rect x="892" y="676" width="72" height="72" transform="rotate(0,928,712)"/><rect x="892" y="1180" width="72" height="72" transform="rotate(0,928,1216)"/><rect x="892" y="1324" width="72" height="72" transform="rotate(0,928,1360)"/><rect x="892" y="1612" width="72" height="72" transform="rotate(0,928,1648)"/><rect x="892" y="1684" width="72" height="72" transform="rotate(0,928,1720)"/><rect x="892" y="1756" width="72" height="72" transform="rotate(0,928,1792)"/><rect x="892" y="1828" width="72" height="72" transform="rotate(0,928,1864)"/><rect x="964" y="172" width="72" height="72" transform="rotate(0,1000,208)"/><rect x="964" y="244" width="72" height="72" transform="rotate(0,1000,280)"/><rect x="964" y="316" width="72" height="72" transform="rotate(0,1000,352)"/><rect x="964" y="388" width="72" height="72" transform="rotate(0,1000,424)"/><rect x="964" y="460" width="72" height="72" transform="rotate(0,1000,496)"/><rect x="964" y="532" width="72" height="72" transform="rotate(0,1000,568)"/><rect x="964" y="748" width="72" height="72" transform="rotate(0,1000,784)"/><rect x="964" y="820" width="72" height="72" transform="rotate(0,1000,856)"/><rect x="964" y="1252" width="72" height="72" transform="rotate(0,1000,1288)"/><rect x="964" y="1396" width="72" height="72" transform="rotate(0,1000,1432)"/><rect x="964" y="1828" width="72" height="72" transform="rotate(0,1000,1864)"/><rect x="1036" y="100" width="72" height="72" transform="rotate(0,1072,136)"/><rect x="1036" y="244" width="72" height="72" transform="rotate(0,1072,280)"/><rect x="1036" y="316" width="72" height="72" transform="rotate(0,1072,352)"/><rect x="1036" y="388" width="72" height="72" transform="rotate(0,1072,424)"/><rect x="1036" y="460" width="72" height="72" transform="rotate(0,1072,496)"/><rect x="1036" y="748" width="72" height="72" transform="rotate(0,1072,784)"/><rect x="1036" y="820" width="72" height="72" transform="rotate(0,1072,856)"/><rect x="1036" y="1180" width="72" height="72" transform="rotate(0,1072,1216)"/><rect x="1036" y="1252" width="72" height="72" transform="rotate(0,1072,1288)"/><rect x="1036" y="1540" width="72" height="72" transform="rotate(0,1072,1576)"/><rect x="1036" y="1756" width="72" height="72" transform="rotate(0,1072,1792)"/><rect x="1108" y="100" width="72" height="72" transform="rotate(0,1144,136)"/><rect x="1108" y="172" width="72" height="72" transform="rotate(0,1144,208)"/><rect x="1108" y="244" width="72" height="72" transform="rotate(0,1144,280)"/><rect x="1108" y="316" width="72" height="72" transform="rotate(0,1144,352)"/><rect x="1108" y="460" width="72" height="72" transform="rotate(0,1144,496)"/><rect x="1108" y="532" width="72" height="72" transform="rotate(0,1144,568)"/><rect x="1108" y="676" width="72" height="72" transform="rotate(0,1144,712)"/><rect x="1108" y="748" width="72" height="72" transform="rotate(0,1144,784)"/><rect x="1108" y="820" width="72" height="72" transform="rotate(0,1144,856)"/><rect x="1108" y="1180" width="72" height="72" transform="rotate(0,1144,1216)"/><rect x="1108" y="1324" width="72" height="72" transform="rotate(0,1144,1360)"/><rect x="1108" y="1396" width="72" height="72" transform="rotate(0,1144,1432)"/><rect x="1108" y="1540" width="72" height="72" transform="rotate(0,1144,1576)"/><rect x="1108" y="1612" width="72" height="72" transform="rotate(0,1144,1648)"/><rect x="1108" y="1684" width="72" height="72" transform="rotate(0,1144,1720)"/><rect x="1108" y="1756" width="72" height="72" transform="rotate(0,1144,1792)"/><rect x="1108" y="1828" width="72" height="72" transform="rotate(0,1144,1864)"/><rect x="1180" y="100" width="72" height="72" transform="rotate(0,1216,136)"/><rect x="1180" y="316" width="72" height="72" transform="rotate(0,1216,352)"/><rect x="1180" y="460" width="72" height="72" transform="rotate(0,1216,496)"/><rect x="1180" y="604" width="72" height="72" transform="rotate(0,1216,640)"/><rect x="1180" y="748" width="72" height="72" transform="rotate(0,1216,784)"/><rect x="1180" y="1252" width="72" height="72" transform="rotate(0,1216,1288)"/><rect x="1180" y="1468" width="72" height="72" transform="rotate(0,1216,1504)"/><rect x="1180" y="1612" width="72" height="72" transform="rotate(0,1216,1648)"/><rect x="1180" y="1684" width="72" height="72" transform="rotate(0,1216,1720)"/><rect x="1180" y="1828" width="72" height="72" transform="rotate(0,1216,1864)"/><rect x="1252" y="100" width="72" height="72" transform="rotate(0,1288,136)"/><rect x="1252" y="244" width="72" height="72" transform="rotate(0,1288,280)"/><rect x="1252" y="388" width="72" height="72" transform="rotate(0,1288,424)"/><rect x="1252" y="532" width="72" height="72" transform="rotate(0,1288,568)"/><rect x="1252" y="748" width="72" height="72" transform="rotate(0,1288,784)"/><rect x="1252" y="820" width="72" height="72" transform="rotate(0,1288,856)"/><rect x="1252" y="892" width="72" height="72" transform="rotate(0,1288,928)"/><rect x="1252" y="1036" width="72" height="72" transform="rotate(0,1288,1072)"/><rect x="1252" y="1252" width="72" height="72" transform="rotate(0,1288,1288)"/><rect x="1252" y="1324" width="72" height="72" transform="rotate(0,1288,1360)"/><rect x="1252" y="1396" width="72" height="72" transform="rotate(0,1288,1432)"/><rect x="1252" y="1468" width="72" height="72" transform="rotate(0,1288,1504)"/><rect x="1252" y="1540" width="72" height="72" transform="rotate(0,1288,1576)"/><rect x="1252" y="1684" width="72" height="72" transform="rotate(0,1288,1720)"/><rect x="1252" y="1756" width="72" height="72" transform="rotate(0,1288,1792)"/><rect x="1324" y="676" width="72" height="72" transform="rotate(0,1360,712)"/><rect x="1324" y="748" width="72" height="72" transform="rotate(0,1360,784)"/><rect x="1324" y="820" width="72" height="72" transform="rotate(0,1360,856)"/><rect x="1324" y="892" width="72" height="72" transform="rotate(0,1360,928)"/><rect x="1324" y="1252" width="72" height="72" transform="rotate(0,1360,1288)"/><rect x="1324" y="1540" width="72" height="72" transform="rotate(0,1360,1576)"/><rect x="1324" y="1684" width="72" height="72" transform="rotate(0,1360,1720)"/><rect x="1324" y="1756" width="72" height="72" transform="rotate(0,1360,1792)"/><rect x="1396" y="820" width="72" height="72" transform="rotate(0,1432,856)"/><rect x="1396" y="892" width="72" height="72" transform="rotate(0,1432,928)"/><rect x="1396" y="1252" width="72" height="72" transform="rotate(0,1432,1288)"/><rect x="1396" y="1396" width="72" height="72" transform="rotate(0,1432,1432)"/><rect x="1396" y="1540" width="72" height="72" transform="rotate(0,1432,1576)"/><rect x="1396" y="1828" width="72" height="72" transform="rotate(0,1432,1864)"/><rect x="1468" y="748" width="72" height="72" transform="rotate(0,1504,784)"/><rect x="1468" y="820" width="72" height="72" transform="rotate(0,1504,856)"/><rect x="1468" y="964" width="72" height="72" transform="rotate(0,1504,1000)"/><rect x="1468" y="1036" width="72" height="72" transform="rotate(0,1504,1072)"/><rect x="1468" y="1180" width="72" height="72" transform="rotate(0,1504,1216)"/><rect x="1468" y="1252" width="72" height="72" transform="rotate(0,1504,1288)"/><rect x="1468" y="1540" width="72" height="72" transform="rotate(0,1504,1576)"/><rect x="1540" y="676" width="72" height="72" transform="rotate(0,1576,712)"/><rect x="1540" y="748" width="72" height="72" transform="rotate(0,1576,784)"/><rect x="1540" y="820" width="72" height="72" transform="rotate(0,1576,856)"/><rect x="1540" y="892" width="72" height="72" transform="rotate(0,1576,928)"/><rect x="1540" y="964" width="72" height="72" transform="rotate(0,1576,1000)"/><rect x="1540" y="1036" width="72" height="72" transform="rotate(0,1576,1072)"/><rect x="1540" y="1108" width="72" height="72" transform="rotate(0,1576,1144)"/><rect x="1540" y="1180" width="72" height="72" transform="rotate(0,1576,1216)"/><rect x="1540" y="1252" width="72" height="72" transform="rotate(0,1576,1288)"/><rect x="1540" y="1324" width="72" height="72" transform="rotate(0,1576,1360)"/><rect x="1540" y="1396" width="72" height="72" transform="rotate(0,1576,1432)"/><rect x="1540" y="1468" width="72" height="72" transform="rotate(0,1576,1504)"/><rect x="1540" y="1540" width="72" height="72" transform="rotate(0,1576,1576)"/><rect x="1612" y="676" width="72" height="72" transform="rotate(0,1648,712)"/><rect x="1612" y="748" width="72" height="72" transform="rotate(0,1648,784)"/><rect x="1612" y="1036" width="72" height="72" transform="rotate(0,1648,1072)"/><rect x="1612" y="1324" width="72" height="72" transform="rotate(0,1648,1360)"/><rect x="1612" y="1396" width="72" height="72" transform="rotate(0,1648,1432)"/><rect x="1612" y="1756" width="72" height="72" transform="rotate(0,1648,1792)"/><rect x="1612" y="1828" width="72" height="72" transform="rotate(0,1648,1864)"/><rect x="1684" y="748" width="72" height="72" transform="rotate(0,1720,784)"/><rect x="1684" y="820" width="72" height="72" transform="rotate(0,1720,856)"/><rect x="1684" y="892" width="72" height="72" transform="rotate(0,1720,928)"/><rect x="1684" y="964" width="72" height="72" transform="rotate(0,1720,1000)"/><rect x="1684" y="1036" width="72" height="72" transform="rotate(0,1720,1072)"/><rect x="1684" y="1108" width="72" height="72" transform="rotate(0,1720,1144)"/><rect x="1684" y="1252" width="72" height="72" transform="rotate(0,1720,1288)"/><rect x="1684" y="1540" width="72" height="72" transform="rotate(0,1720,1576)"/><rect x="1684" y="1612" width="72" height="72" transform="rotate(0,1720,1648)"/><rect x="1684" y="1684" width="72" height="72" transform="rotate(0,1720,1720)"/><rect x="1684" y="1756" width="72" height="72" transform="rotate(0,1720,1792)"/><rect x="1684" y="1828" width="72" height="72" transform="rotate(0,1720,1864)"/><rect x="1756" y="676" width="72" height="72" transform="rotate(0,1792,712)"/><rect x="1756" y="748" width="72" height="72" transform="rotate(0,1792,784)"/><rect x="1756" y="820" width="72" height="72" transform="rotate(0,1792,856)"/><rect x="1756" y="964" width="72" height="72" transform="rotate(0,1792,1000)"/><rect x="1756" y="1324" width="72" height="72" transform="rotate(0,1792,1360)"/><rect x="1756" y="1468" width="72" height="72" transform="rotate(0,1792,1504)"/><rect x="1756" y="1540" width="72" height="72" transform="rotate(0,1792,1576)"/><rect x="1756" y="1684" width="72" height="72" transform="rotate(0,1792,1720)"/><rect x="1756" y="1756" width="72" height="72" transform="rotate(0,1792,1792)"/><rect x="1756" y="1828" width="72" height="72" transform="rotate(0,1792,1864)"/><rect x="1828" y="676" width="72" height="72" transform="rotate(0,1864,712)"/><rect x="1828" y="820" width="72" height="72" transform="rotate(0,1864,856)"/><rect x="1828" y="1180" width="72" height="72" transform="rotate(0,1864,1216)"/><rect x="1828" y="1252" width="72" height="72" transform="rotate(0,1864,1288)"/><rect x="1828" y="1396" width="72" height="72" transform="rotate(0,1864,1432)"/><rect x="1828" y="1612" width="72" height="72" transform="rotate(0,1864,1648)"/><rect x="1828" y="1828" width="72" height="72" transform="rotate(0,1864,1864)"/></clipPath><clipPath id="clip-path-corners-square-color-0-0"><path clip-rule="evenodd" d="M 100 280v 144a 180 180, 0, 0, 0, 180 180h 144a 180 180, 0, 0, 0, 180 -180v -144a 180 180, 0, 0, 0, -180 -180h -144a 180 180, 0, 0, 0, -180 180M 280 172h 144a 108 108, 0, 0, 1, 108 108v 144a 108 108, 0, 0, 1, -108 108h -144a 108 108, 0, 0, 1, -108 -108v -144a 108 108, 0, 0, 1, 108 -108" transform="rotate(0,352,352)"/></clipPath><clipPath id="clip-path-corners-dot-color-0-0"><rect x="244" y="244" width="72" height="72" transform="rotate(0,280,280)"/><rect x="244" y="316" width="72" height="72" transform="rotate(0,280,352)"/><rect x="244" y="388" width="72" height="72" transform="rotate(0,280,424)"/><rect x="316" y="244" width="72" height="72" transform="rotate(0,352,280)"/><rect x="316" y="316" width="72" height="72" transform="rotate(0,352,352)"/><rect x="316" y="388" width="72" height="72" transform="rotate(0,352,424)"/><rect x="388" y="244" width="72" height="72" transform="rotate(0,424,280)"/><rect x="388" y="316" width="72" height="72" transform="rotate(0,424,352)"/><rect x="388" y="388" width="72" height="72" transform="rotate(0,424,424)"/></clipPath><clipPath id="clip-path-corners-square-color-1-0"><path clip-rule="evenodd" d="M 1396 280v 144a 180 180, 0, 0, 0, 180 180h 144a 180 180, 0, 0, 0, 180 -180v -144a 180 180, 0, 0, 0, -180 -180h -144a 180 180, 0, 0, 0, -180 180M 1576 172h 144a 108 108, 0, 0, 1, 108 108v 144a 108 108, 0, 0, 1, -108 108h -144a 108 108, 0, 0, 1, -108 -108v -144a 108 108, 0, 0, 1, 108 -108" transform="rotate(90,1648,352)"/></clipPath><clipPath id="clip-path-corners-dot-color-1-0"><rect x="1540" y="244" width="72" height="72" transform="rotate(0,1576,280)"/><rect x="1540" y="316" width="72" height="72" transform="rotate(0,1576,352)"/><rect x="1540" y="388" width="72" height="72" transform="rotate(0,1576,424)"/><rect x="1612" y="244" width="72" height="72" transform="rotate(0,1648,280)"/><rect x="1612" y="316" width="72" height="72" transform="rotate(0,1648,352)"/><rect x="1612" y="388" width="72" height="72" transform="rotate(0,1648,424)"/><rect x="1684" y="244" width="72" height="72" transform="rotate(0,1720,280)"/><rect x="1684" y="316" width="72" height="72" transform="rotate(0,1720,352)"/><rect x="1684" y="388" width="72" height="72" transform="rotate(0,1720,424)"/></clipPath><clipPath id="clip-path-corners-square-color-0-1"><path clip-rule="evenodd" d="M 100 1576v 144a 180 180, 0, 0, 0, 180 180h 144a 180 180, 0, 0, 0, 180 -180v -144a 180 180, 0, 0, 0, -180 -180h -144a 180 180, 0, 0, 0, -180 180M 280 1468h 144a 108 108, 0, 0, 1, 108 108v 144a 108 108, 0, 0, 1, -108 108h -144a 108 108, 0, 0, 1, -108 -108v -144a 108 108, 0, 0, 1, 108 -108" transform="rotate(-90,352,1648)"/></clipPath><clipPath id="clip-path-corners-dot-color-0-1"><rect x="244" y="1540" width="72" height="72" transform="rotate(0,280,1576)"/><rect x="244" y="1612" width="72" height="72" transform="rotate(0,280,1648)"/><rect x="244" y="1684" width="72" height="72" transform="rotate(0,280,1720)"/><rect x="316" y="1540" width="72" height="72" transform="rotate(0,352,1576)"/><rect x="316" y="1612" width="72" height="72" transform="rotate(0,352,1648)"/><rect x="316" y="1684" width="72" height="72" transform="rotate(0,352,1720)"/><rect x="388" y="1540" width="72" height="72" transform="rotate(0,424,1576)"/><rect x="388" y="1612" width="72" height="72" transform="rotate(0,424,1648)"/><rect x="388" y="1684" width="72" height="72" transform="rotate(0,424,1720)"/></clipPath></defs><rect x="0" y="0" height="2000" width="2000" clip-path="url('#clip-path-background-color')" fill="#ffffff"/><rect x="100" y="100" height="1800" width="1800" clip-path="url('#clip-path-dot-color')" fill="#000000"/><rect x="100" y="100" height="504" width="504" clip-path="url('#clip-path-corners-square-color-0-0')" fill="#000000"/><rect x="244" y="244" height="216" width="216" clip-path="url('#clip-path-corners-dot-color-0-0')" fill="#000000"/><rect x="1396" y="100" height="504" width="504" clip-path="url('#clip-path-corners-square-color-1-0')" fill="#000000"/><rect x="1540" y="244" height="216" width="216" clip-path="url('#clip-path-corners-dot-color-1-0')" fill="#000000"/><rect x="100" y="1396" height="504" width="504" clip-path="url('#clip-path-corners-square-color-0-1')" fill="#000000"/><rect x="244" y="1540" height="216" width="216" clip-path="url('#clip-path-corners-dot-color-0-1')" fill="#000000"/><image href="https://img.qrfy.com/img/large/d4508085-04f3-4524-97dd-d4ccf33a00ce.webp" x="820" y="929" width="360px" height="142px"/></svg>