<svg xmlns="http://www.w3.org/2000/svg" xmlns:xlink="http://www.w3.org/1999/xlink" xmlns:svgjs="http://svgjs.com/svgjs" version="1.1" width="1624.1719970703125" height="642.9999542236328"><g transform="scale(5) translate(30, 30)"> <defs id="SvgjsDefs5028"></defs><g xmlns:name="main_text" id="SvgjsG5029" rel="mainfill" name="main_text" transform="translate(58.46440119743346,-202.49000549316406)" fill="#000000" style="fill: #000000"><path d="M24.41 207.28C24.41 206.23 24.09 205.23 24.09 204.18C24.09 203.81 24.15 203.49 24.15 203.12C24.15 203.07 24.15 202.76 24.04 202.76C23.25 202.76 22.46 202.91 21.67 202.97C17.94 203.18 14.26 203.18 10.52 203.18C8.57 203.18 6.58 202.91 4.63 202.91C4.47 202.91 3.95 202.97 3.95 203.18C3.95 203.49 5.47 203.54 5.73 203.65C7.58 204.23 7.89 205.96 7.89 207.70L7.89 229.95C7.89 234.21 7.42 237.32 7.00 238.11C6.42 239.26 5.73 239.47 4.84 239.63C4.52 239.68 4.26 239.84 4.26 240C4.26 240.21 4.68 240.26 4.89 240.26C6.58 240.26 8.21 240 9.84 240C11.26 240 12.73 240.16 14.15 240.16C14.31 240.16 14.89 240.16 14.89 239.89C14.89 239.63 14.31 239.63 14.10 239.63C13.36 239.58 12.63 239.42 12.15 238.74C11.36 237.58 11.26 233.85 11.26 232.37L11.26 222.85C11.26 222.17 11.52 222.11 12.10 222.11L16.47 222.11C17.57 222.11 20.25 222.43 21.04 223.22C21.99 224.17 21.36 226.38 21.99 226.38C22.20 226.38 22.25 225.80 22.25 225.64C22.25 223.96 21.99 222.27 21.99 220.59C21.99 219.38 22.30 218.17 22.30 216.96C22.30 216.85 22.25 216.43 22.15 216.43C21.73 216.43 21.62 218.22 21.04 218.80C20.20 219.64 17.31 219.80 16.15 219.80L12.31 219.80C11.78 219.80 11.26 219.80 11.26 219.12L11.26 206.12C11.26 205.18 11.47 204.96 12.41 204.96L18.04 204.96C19.36 204.96 23.94 205.39 23.94 207.17C23.94 207.33 23.94 207.75 24.15 207.75C24.41 207.75 24.41 207.44 24.41 207.28ZM67.91 203.39C67.91 203.12 67.65 203.07 67.33 203.07C65.91 203.07 64.44 203.18 63.02 203.18C61.39 203.18 59.81 202.97 58.18 202.97C57.87 202.97 57.29 203.02 57.29 203.39C57.29 203.65 57.97 203.65 58.87 203.81C61.18 204.23 61.34 205.18 61.50 207.54C61.71 210.28 61.97 216.28 61.97 217.38L61.97 226.01C61.97 234.84 56.18 239.26 49.03 239.26C41.61 239.26 36.98 234.32 36.98 226.01L36.98 212.96C36.98 206.44 37.14 204.86 39.19 203.86C39.51 203.70 40.93 203.44 40.93 203.12C40.93 202.97 40.72 202.91 40.51 202.91C38.82 202.91 37.03 203.18 35.30 203.18C33.77 203.18 32.19 202.97 30.67 202.97C30.35 202.97 29.98 202.97 29.98 203.33C29.98 203.70 32.09 203.65 32.88 204.54C33.30 205.02 33.40 206.23 33.40 208.33L33.40 226.85C33.40 236.00 39.35 240.84 48.55 240.84C58.65 240.84 64.23 234.48 64.23 224.69L64.23 210.49C64.23 206.70 64.44 203.65 67.28 203.65C67.49 203.65 67.91 203.65 67.91 203.39ZM100.16 203.18C100.16 203.07 100.11 202.97 99.90 202.97C98.00 202.97 96.27 203.18 94.37 203.18L77.59 203.18C76.12 203.18 74.59 203.12 73.17 202.86C72.70 202.76 72.28 202.49 71.81 202.49C71.49 202.49 71.44 203.54 71.39 203.76C71.23 204.44 70.54 206.07 70.54 206.65C70.54 206.81 70.60 207.12 70.81 207.12C71.17 207.12 70.70 205.49 73.44 205.49L82.80 205.49C83.69 205.49 83.85 206.07 83.85 206.86L83.85 230.58C83.85 232.06 83.85 237.21 83.43 238.37C83.06 239.42 82.33 239.53 81.06 239.68C80.85 239.74 79.91 239.79 79.91 240.05C79.91 240.21 80.12 240.21 80.22 240.21C82.06 240.21 83.91 240 85.75 240C87.22 240 88.74 240.21 90.22 240.21C90.43 240.21 91.64 240.21 91.64 239.95C91.64 239.79 91.43 239.68 91.27 239.68C90.90 239.68 90.48 239.74 90.11 239.74C89.32 239.74 88.43 239.05 88.01 238.42C87.22 237.21 87.22 232.53 87.22 230.85L87.22 208.44C87.22 205.81 87.38 205.49 88.06 205.49L92.32 205.49C94.11 205.49 95.37 205.49 96.69 205.75C97.32 205.86 98.53 206.23 98.95 206.75C99.16 207.02 99.21 207.38 99.37 207.38C99.48 207.38 99.53 207.17 99.53 206.91C99.53 206.44 99.58 205.96 99.69 205.49C99.84 204.75 100.16 203.97 100.16 203.18ZM141.24 203.39C141.24 203.12 140.98 203.07 140.67 203.07C139.25 203.07 137.77 203.18 136.35 203.18C134.72 203.18 133.14 202.97 131.51 202.97C131.20 202.97 130.62 203.02 130.62 203.39C130.62 203.65 131.30 203.65 132.20 203.81C134.51 204.23 134.67 205.18 134.83 207.54C135.04 210.28 135.30 216.28 135.30 217.38L135.30 226.01C135.30 234.84 129.51 239.26 122.36 239.26C114.94 239.26 110.31 234.32 110.31 226.01L110.31 212.96C110.31 206.44 110.47 204.86 112.52 203.86C112.84 203.70 114.26 203.44 114.26 203.12C114.26 202.97 114.05 202.91 113.84 202.91C112.15 202.91 110.37 203.18 108.63 203.18C107.10 203.18 105.53 202.97 104.00 202.97C103.68 202.97 103.32 202.97 103.32 203.33C103.32 203.70 105.42 203.65 106.21 204.54C106.63 205.02 106.74 206.23 106.74 208.33L106.74 226.85C106.74 236.00 112.68 240.84 121.89 240.84C131.99 240.84 137.56 234.48 137.56 224.69L137.56 210.49C137.56 206.70 137.77 203.65 140.61 203.65C140.82 203.65 141.24 203.65 141.24 203.39ZM181.59 239.68C181.59 239.42 181.38 239.37 181.17 239.37C180.86 239.37 180.59 239.42 180.28 239.42C177.60 239.42 173.54 234.69 172.18 232.85L165.08 223.27C164.97 223.11 164.71 222.80 164.71 222.54C164.71 222.38 164.81 222.17 164.92 222.01C167.97 219.80 170.28 215.75 170.28 211.96C170.28 205.44 164.86 202.81 159.03 202.81C156.76 202.81 154.55 203.18 152.29 203.18C150.66 203.18 149.19 202.97 147.56 202.97C147.19 202.97 146.82 202.97 146.82 203.28C146.82 203.44 147.14 203.49 147.45 203.54C149.61 203.76 150.71 204.96 150.71 207.49L150.71 234.84C150.71 236.32 150.45 238.26 149.14 239.21C148.61 239.58 147.24 239.47 147.24 239.95C147.24 240.16 147.56 240.16 148.56 240.16C149.98 240.16 151.45 240 152.87 240C154.40 240 155.87 240.21 157.39 240.21C157.82 240.21 158.24 240.16 158.24 239.89C158.24 239.53 156.87 239.63 156.29 239.42C155.66 239.21 155.24 238.90 154.92 238.26C154.19 236.90 154.08 233.27 154.08 231.74L154.08 224.64C154.08 224.17 154.34 223.96 154.82 223.96L160.08 223.96C162.29 223.96 163.39 226.80 164.50 228.32L170.02 236.16C172.76 240 175.96 240.11 180.49 240.11C180.75 240.11 181.59 240.11 181.59 239.68ZM166.92 213.80C166.92 216.64 165.76 220.64 162.97 221.96C162.29 222.27 160.92 222.27 160.18 222.27L157.92 222.27C157.34 222.27 154.08 222.27 154.08 221.48L154.08 207.38C154.08 206.23 154.40 204.81 155.82 204.81L157.39 204.81C162.87 204.81 166.92 208.12 166.92 213.80ZM205.84 206.81C205.84 205.91 205.74 204.96 205.74 204.07C205.74 203.81 205.79 203.49 205.79 203.18C205.79 202.91 205.74 202.81 205.58 202.81C204.69 202.81 203.79 202.91 202.90 202.91C198.80 202.91 194.64 203.18 190.54 203.18C189.01 203.18 187.54 202.91 186.01 202.91C185.85 202.91 185.49 202.97 185.49 203.18C185.49 203.33 185.80 203.39 185.96 203.39C188.27 203.39 189.17 204.86 189.17 207.17L189.17 225.01C189.17 227.27 189.06 236.63 188.48 238.21C188.01 239.37 186.85 239.47 185.91 239.58C185.43 239.63 185.01 239.68 185.01 239.89C185.01 240.16 185.59 240.16 186.01 240.16C187.96 240.16 189.85 240 191.80 240C195.38 240 199.95 240.16 203.53 240.16C203.95 240.16 204.53 240.11 204.84 239.79C205.32 239.32 206.37 236.16 206.37 235.53C206.37 235.42 206.27 235.32 206.16 235.32C205.90 235.32 205.74 235.84 205.53 236.11C204.32 237.79 200.32 238.00 198.43 238.00C197.06 238.00 194.32 237.95 193.27 237.00C192.64 236.42 192.54 235.79 192.54 234.95L192.54 222.64C192.54 221.96 192.59 221.69 193.32 221.69L200.11 221.69C200.95 221.69 202.16 221.69 202.74 222.43C202.95 222.69 203.16 223.01 203.27 223.32C203.32 223.53 203.32 224.32 203.58 224.32C203.79 224.32 203.79 223.90 203.79 223.80C203.79 222.54 203.69 221.33 203.69 220.06C203.69 219.27 203.85 218.48 203.85 217.70C203.85 217.54 203.85 216.70 203.58 216.70C203.32 216.70 203.21 217.59 203.16 217.80C203.06 218.17 202.79 218.54 202.48 218.80C201.90 219.33 200.22 219.38 199.43 219.38L193.43 219.38C192.54 219.38 192.54 219.12 192.54 218.33L192.54 205.91C192.54 204.91 192.80 204.91 193.69 204.91L200.06 204.91C201.06 204.91 202.06 204.96 203.06 205.23C204.37 205.60 204.69 205.75 205.21 206.75C205.32 206.91 205.42 207.12 205.63 207.12C205.84 207.12 205.84 206.96 205.84 206.81Z" fill="#000000" style="fill: #000000"></path></g><g xmlns:name="slogan_text" id="SvgjsG5030" rel="mainfill" name="slogan_text" transform="translate(108.33440084457396,-175.95001220703125)" fill="#000000" style="fill: #000000"><path d="M5.21 229.43L5.21 241.52Q5.21 241.73 5.19 242.11Q5.17 242.49 5.05 242.90Q4.88 243.52 4.41 244.04Q3.93 244.55 2.95 244.55Q2.68 244.55 2.35 244.50Q2.02 244.45 1.65 244.35L1.65 243.23Q1.94 243.30 2.16 243.34Q2.39 243.38 2.60 243.38Q3.34 243.36 3.59 242.94Q3.85 242.51 3.89 242.00Q3.91 241.90 3.91 241.80Q3.91 241.71 3.91 241.63L3.91 229.43L5.21 229.43L5.21 229.43M3.91 224.71L5.21 224.71L5.21 226.36L3.91 226.36L3.91 224.71L3.91 224.71ZM23.71 235.10L16.25 235.10Q16.23 236.66 17.23 237.92Q18.23 239.18 20.06 239.18Q20.68 239.18 21.39 238.98Q22.10 238.78 22.91 238.39L22.91 239.59Q22.37 239.81 21.82 239.95Q21.26 240.08 20.70 240.14Q20.52 240.16 20.33 240.18Q20.15 240.19 19.96 240.19Q17.98 240.19 16.44 238.89Q14.89 237.59 14.89 234.54Q14.89 232.28 16.10 230.77Q17.30 229.27 19.49 229.27Q21.38 229.27 22.26 230.20Q23.13 231.14 23.44 232.25Q23.63 232.95 23.67 233.60Q23.71 234.25 23.71 234.69L23.71 235.10L23.71 235.10M16.25 234.01L22.35 234.01Q22.37 233.70 22.34 233.32Q22.31 232.93 22.19 232.52Q21.98 231.72 21.37 231.04Q20.76 230.36 19.49 230.36Q18.11 230.36 17.36 231.19Q16.60 232.03 16.38 233.04Q16.32 233.28 16.28 233.53Q16.25 233.78 16.25 234.01L16.25 234.01ZM32.16 229.43L33.54 229.43L36.05 237.49L36.38 238.91L36.44 238.91L36.79 237.51L39.22 229.43L40.87 229.43L43.51 237.49L43.88 238.91L43.94 238.91L44.29 237.49L46.58 229.43L47.90 229.43L44.72 240L43.10 240L40.42 231.99L40.03 230.50L39.96 230.50L39.59 231.99L37.18 240L35.58 240L32.16 229.43L32.16 229.43ZM65.16 235.10L57.70 235.10Q57.68 236.66 58.68 237.92Q59.68 239.18 61.51 239.18Q62.13 239.18 62.84 238.98Q63.55 238.78 64.35 238.39L64.35 239.59Q63.82 239.81 63.26 239.95Q62.71 240.08 62.15 240.14Q61.96 240.16 61.78 240.18Q61.59 240.19 61.41 240.19Q59.43 240.19 57.89 238.89Q56.34 237.59 56.34 234.54Q56.34 232.28 57.55 230.77Q58.75 229.27 60.93 229.27Q62.83 229.27 63.71 230.20Q64.58 231.14 64.89 232.25Q65.08 232.95 65.12 233.60Q65.16 234.25 65.16 234.69L65.16 235.10L65.16 235.10M57.70 234.01L63.80 234.01Q63.82 233.70 63.79 233.32Q63.76 232.93 63.63 232.52Q63.43 231.72 62.82 231.04Q62.21 230.36 60.93 230.36Q59.55 230.36 58.80 231.19Q58.05 232.03 57.82 233.04Q57.76 233.28 57.73 233.53Q57.70 233.78 57.70 234.01L57.70 234.01ZM74.84 224.30L76.14 224.30L76.14 240L74.84 240L74.84 224.30L74.84 224.30ZM88.02 240L86.73 240L86.73 231.37L86.64 229.43L87.88 229.43L87.88 231.60L87.90 231.60Q88.13 230.65 88.81 229.96Q89.49 229.27 90.50 229.27Q90.78 229.27 91.07 229.29Q91.36 229.31 91.63 229.39L91.63 230.63Q91.30 230.52 91.02 230.51Q90.74 230.50 90.58 230.50Q89.36 230.50 88.69 231.48Q88.02 232.46 88.02 233.92L88.02 240L88.02 240ZM100.71 244.35L100.84 243.19Q100.96 243.21 101.09 243.24Q101.23 243.28 101.37 243.28Q101.52 243.30 101.65 243.31Q101.78 243.32 101.91 243.32Q102.57 243.32 102.89 242.87Q103.21 242.43 103.43 241.71L103.89 240.35L100.07 229.43L101.45 229.43L104.24 237.49L104.57 238.54L104.59 238.54L104.92 237.51L107.59 229.43L108.93 229.43L104.42 242.39Q104.07 243.40 103.54 243.94Q103.00 244.49 102.09 244.49Q101.74 244.49 101.45 244.46Q101.17 244.43 100.96 244.39Q100.88 244.37 100.82 244.36Q100.75 244.35 100.71 244.33L100.71 244.35Z" fill="#000000" style="fill: #000000"></path></g><g xmlns:name="symbol_mainfill" id="SvgjsG5031" rel="mainfill" name="symbol" transform="translate(-5.0927999496459995,5.394997310638427) scale(0.6)" fill="#0D0D0D" style="fill: #0D0D0D"><path d="M52.035,16.688l9.811-10.465l-4.505-5.379H38.659l-4.505,5.379l9.811,10.465C24.066,18.715,8.488,35.57,8.488,55.994  c0,21.787,17.725,39.512,39.512,39.512s39.512-17.725,39.512-39.512C87.512,35.57,71.934,18.715,52.035,16.688z M48,94.006  c-20.96,0-38.012-17.052-38.012-38.012c0-19.621,14.945-35.816,34.051-37.804v6.551c-15.512,1.955-27.551,15.22-27.551,31.253  c0,17.376,14.136,31.512,31.512,31.512S79.512,73.37,79.512,55.994c0-16.033-12.039-29.298-27.551-31.253V18.19  c19.105,1.987,34.051,18.183,34.051,37.804C86.012,76.954,68.96,94.006,48,94.006z M48.102,8.41l2.343,7.31h-4.634L48.102,8.41z   M48,25.983c16.549,0,30.012,13.463,30.012,30.011c0,16.549-13.463,30.012-30.012,30.012S17.988,72.543,17.988,55.994  C17.988,39.446,31.451,25.983,48,25.983z M50.461,24.589c-0.813-0.063-1.632-0.105-2.461-0.105s-1.647,0.042-2.461,0.105v-6.518  c0.814-0.052,1.634-0.088,2.461-0.088s1.646,0.036,2.461,0.088V24.589z M51.729,14.819l-2.523-7.875h9.906L51.729,14.819z   M53.357,5.444l3.527-2.808l2.353,2.808H53.357z M54.844,2.344l-3.895,3.101h-5.898l-3.895-3.101H54.844z M39.115,2.637l3.527,2.808  h-5.88L39.115,2.637z M36.888,6.944h10.101l-2.531,8.075L36.888,6.944z" fill="#0D0D0D" style="fill: #0D0D0D"></path></g> </g></svg>
